<svg xmlns="http://www.w3.org/2000/svg" width="33.536" height="33.815" viewBox="0 0 33.536 33.815">
  <g id="cleaning-spray" transform="translate(-0.375 -0.096)">
    <line id="Line_2295" data-name="Line 2295" y1="1.657" x2="2.762" transform="translate(29.847 1.125)" fill="none" stroke="#D2CFCF" stroke-linecap="round" stroke-linejoin="round" stroke-width="1.5"/>
    <line id="Line_2296" data-name="Line 2296" x2="2.762" y2="1.657" transform="translate(29.847 10.515)" fill="none" stroke="#D2CFCF" stroke-linecap="round" stroke-linejoin="round" stroke-width="1.5"/>
    <line id="Line_2297" data-name="Line 2297" x2="3.314" transform="translate(29.847 6.648)" fill="none" stroke="#D2CFCF" stroke-linecap="round" stroke-linejoin="round" stroke-width="1.5"/>
    <path id="Path_3728" data-name="Path 3728" d="M19.945,1.875H10A6.628,6.628,0,0,0,3.375,8.5H8.9v6.628h4.419V8.5h6.628Z" transform="translate(1.064 0.355)" fill="none" stroke="#D2CFCF" stroke-linecap="round" stroke-linejoin="round" stroke-width="1.5"/>
    <path id="Path_3729" data-name="Path 3729" d="M10.125,6.375S13.439,11.9,17.858,11.9" transform="translate(4.256 2.483)" fill="none" stroke="#D2CFCF" stroke-linecap="round" stroke-linejoin="round" stroke-width="1.5"/>
    <path id="Path_3730" data-name="Path 3730" d="M16.591,15.294V13.084a2.209,2.209,0,0,0-2.209-2.209H9.963a2.209,2.209,0,0,0-2.209,2.209v2.209c-3.314,0-6.628,2.209-6.628,8.838A4.419,4.419,0,0,0,5.544,28.55H18.8a4.419,4.419,0,0,0,4.419-4.419C23.219,17.5,19.9,15.294,16.591,15.294Z" transform="translate(0 4.611)" fill="none" stroke="#D2CFCF" stroke-linecap="round" stroke-linejoin="round" stroke-width="1.5"/>
    <line id="Line_2298" data-name="Line 2298" y2="3.314" transform="translate(25.428 4.439)" fill="none" stroke="#D2CFCF" stroke-linecap="round" stroke-linejoin="round" stroke-width="1.5"/>
  </g>
</svg>
