<svg xmlns="http://www.w3.org/2000/svg" width="28.156" height="28.826" viewBox="0 0 28.156 28.826">
  <g id="lab-flask-experiment" transform="translate(-0.258)">
    <path id="Path_3731" data-name="Path 3731" d="M4.755,28.826A4.5,4.5,0,0,1,.984,21.867L8.93,9.642V1.8h-.9a.9.9,0,1,1,0-1.8H20.64a.9.9,0,1,1,0,1.8h-.9V9.642l7.946,12.226a4.5,4.5,0,0,1-3.776,6.958Zm-2.26-5.977a2.7,2.7,0,0,0,2.262,4.176H23.91a2.7,2.7,0,0,0,2.265-4.175l-4.312-6.635H6.806Zm18.2-8.436L18.083,10.4a.9.9,0,0,1-.145-.491v-.9h-2.7a.9.9,0,0,1,0-1.8h2.7V5.4h-2.7a.9.9,0,0,1,0-1.8h2.7V1.8H10.731V9.909a.9.9,0,0,1-.145.491L7.977,14.413Z" transform="translate(0)" fill="#D2CFCF"/>
    <path id="Path_3732" data-name="Path 3732" d="M16.18,20.4a.9.9,0,0,1-.9-.9v-.9h-.9a.9.9,0,1,1,0-1.8h.9v-.9a.9.9,0,0,1,1.8,0v.9h.9a.9.9,0,1,1,0,1.8h-.9v.9A.9.9,0,0,1,16.18,20.4Z" transform="translate(2.658 3.016)" fill="#D2CFCF"/>
    <path id="Path_3733" data-name="Path 3733" d="M6.953,21.077a.9.9,0,0,1-.16-.014,1.353,1.353,0,0,1-1.177-1.179.862.862,0,0,1-.014-.157.982.982,0,0,1,.013-.157A1.353,1.353,0,0,1,6.8,18.388a.955.955,0,0,1,.156-.013c.022,0,.064,0,.085.006a.6.6,0,0,1,.068.007,1.352,1.352,0,0,1,1.183,1.181.866.866,0,0,1,0,.315,1.351,1.351,0,0,1-1.177,1.179.846.846,0,0,1-.159.014Z" transform="translate(1.075 3.695)" fill="#D2CFCF"/>
    <path id="Path_3734" data-name="Path 3734" d="M9.953,18.077a.9.9,0,0,1-.16-.014,1.353,1.353,0,0,1-1.177-1.179.862.862,0,0,1-.014-.157.982.982,0,0,1,.013-.157A1.353,1.353,0,0,1,9.8,15.388a.929.929,0,0,1,.312,0,1.346,1.346,0,0,1,1.2,1.338.981.981,0,0,1-.016.167,1.355,1.355,0,0,1-1.176,1.17.846.846,0,0,1-.159.014Z" transform="translate(1.678 3.092)" fill="#D2CFCF"/>
  </g>
</svg>
