<svg xmlns="http://www.w3.org/2000/svg" width="28.648" height="32.836" viewBox="0 0 28.648 32.836">
  <g id="Group_10772" data-name="Group 10772" transform="translate(-1014 -1047.769)">
    <g id="Group_10706" data-name="Group 10706" transform="translate(1014 1059.662)">
      <path id="Path_3713" data-name="Path 3713" d="M26.5,17.066a8.377,8.377,0,0,1-16.754,0C9.75,12.44,18.127,4.5,18.127,4.5S26.5,12.44,26.5,17.066Z" transform="translate(-9.75 -4.5)" fill="#D2CFCF"/>
      <path id="Path_3714" data-name="Path 3714" d="M15.542,14.042A2.792,2.792,0,0,1,12.75,11.25" transform="translate(-7.165 1.316)" fill="none" stroke="#000" stroke-linecap="round" stroke-linejoin="round" stroke-width="1.5"/>
    </g>
    <g id="Group_10707" data-name="Group 10707" transform="translate(1029.52 1049.049) rotate(45)">
      <path id="Path_3715" data-name="Path 3715" d="M0,2.168a7.405,7.405,0,0,1,10.471,0" transform="translate(3.142 6.263)" fill="none" stroke="#D2CFCF" stroke-linecap="round" stroke-linejoin="round" stroke-width="1.5"/>
      <path id="Path_3716" data-name="Path 3716" d="M0,3.47a11.847,11.847,0,0,1,16.754,0" transform="translate(0 0)" fill="none" stroke="#D2CFCF" stroke-linecap="round" stroke-linejoin="round" stroke-width="1.5"/>
    </g>
  </g>
</svg>
