<svg width="24" height="24" viewBox="0 0 24 24" fill="none" xmlns="http://www.w3.org/2000/svg">

<path fill-rule="evenodd" clip-rule="evenodd" d="M2.5 4.75C2.08579 4.75 1.75 5.08579 1.75 5.5V19C1.75 19.4142 2.08579 19.75 2.5 19.75H22C22.4142 19.75 22.75 19.4142 22.75 19V5.5C22.75 5.08579 22.4142 4.75 22 4.75H2.5ZM0.25 5.5C0.25 4.25736 1.25736 3.25 2.5 3.25H22C23.2426 3.25 24.25 4.25736 24.25 5.5V19C24.25 20.2426 23.2426 21.25 22 21.25H2.5C1.25736 21.25 0.25 20.2426 0.25 19V5.5Z" fill="black"/>
<path fill-rule="evenodd" clip-rule="evenodd" d="M20.916 7.87597C21.2607 8.10573 21.3538 8.57138 21.124 8.91603L16.624 15.666C16.4994 15.853 16.2975 15.9742 16.0739 15.9964C15.8503 16.0185 15.6285 15.9392 15.4697 15.7803L13 13.3107L10.5303 15.7803C10.363 15.9477 10.1265 16.0262 9.89234 15.9922C9.65816 15.9583 9.45375 15.8158 9.34085 15.6078L7.11742 11.512L4.64311 15.6359C4.43 15.9911 3.9693 16.1062 3.61412 15.8931C3.25893 15.68 3.14376 15.2193 3.35687 14.8641L6.50687 9.61413C6.64538 9.38328 6.89699 9.24438 7.16614 9.25018C7.4353 9.25598 7.68069 9.40559 7.80913 9.64218L10.1799 14.0094L12.4697 11.7197C12.7626 11.4268 13.2374 11.4268 13.5303 11.7197L15.8834 14.0728L19.876 8.08398C20.1057 7.73933 20.5714 7.6462 20.916 7.87597Z" fill="black"/>

</svg>
