<svg xmlns="http://www.w3.org/2000/svg" viewBox="0 0 24 24"><defs><style>.a{fill:none;stroke:currentColor;stroke-linecap:round;stroke-linejoin:round;stroke-width:1.5px;}</style></defs><title>cleaning-spray</title><path class="a" d="M20.625 2.25L22.5 1.125"/><path class="a" d="M20.625 7.5L22.5 8.625"/><path class="a" d="M20.625 4.875h2.25"/><path class="a" d="M14.625 1.875h-6.75a4.5 4.5 0 0 0-4.5 4.5h3.75v4.5h3v-4.5h4.5z"/><path class="a" d="M10.125 6.375s2.25 3.75 5.25 3.75"/><path class="a" d="M11.625 13.875v-1.5a1.5 1.5 0 0 0-1.5-1.5h-3a1.5 1.5 0 0 0-1.5 1.5v1.5c-2.25 0-4.5 1.5-4.5 6a3 3 0 0 0 3 3h9a3 3 0 0 0 3-3c0-4.5-2.25-6-4.5-6z"/><path class="a" d="M17.625 3.375v2.25"/></svg>