<svg width="24" height="24" viewBox="0 0 24 24" fill="none" xmlns="http://www.w3.org/2000/svg">
<path fill-rule="evenodd" clip-rule="evenodd" d="M7 1.9H3C2.44772 1.9 2 2.30294 2 2.8V8.2C2 8.69706 2.44772 9.1 3 9.1H7C7.55228 9.1 8 8.69706 8 8.2V2.8C8 2.30294 7.55228 1.9 7 1.9ZM3 1C1.89543 1 1 1.80589 1 2.8V8.2C1 9.19411 1.89543 10 3 10H7C8.10457 10 9 9.19411 9 8.2V2.8C9 1.80589 8.10457 1 7 1H3Z" fill="black"/>
<path fill-rule="evenodd" clip-rule="evenodd" d="M21.1667 1.9H13.8333C13.3271 1.9 12.9167 2.30294 12.9167 2.8V8.2C12.9167 8.69706 13.3271 9.1 13.8333 9.1H21.1667C21.6729 9.1 22.0833 8.69706 22.0833 8.2V2.8C22.0833 2.30294 21.6729 1.9 21.1667 1.9ZM13.8333 1C12.8208 1 12 1.80589 12 2.8V8.2C12 9.19411 12.8208 10 13.8333 10H21.1667C22.1792 10 23 9.19411 23 8.2V2.8C23 1.80589 22.1792 1 21.1667 1H13.8333Z" fill="black"/>
<path fill-rule="evenodd" clip-rule="evenodd" d="M21 14H17C16.4477 14 16 14.4477 16 15V21C16 21.5523 16.4477 22 17 22H21C21.5523 22 22 21.5523 22 21V15C22 14.4477 21.5523 14 21 14ZM17 13C15.8954 13 15 13.8954 15 15V21C15 22.1046 15.8954 23 17 23H21C22.1046 23 23 22.1046 23 21V15C23 13.8954 22.1046 13 21 13H17Z" fill="black"/>
<path fill-rule="evenodd" clip-rule="evenodd" d="M10.1667 14H2.83333C2.32707 14 1.91667 14.4477 1.91667 15V21C1.91667 21.5523 2.32707 22 2.83333 22H10.1667C10.6729 22 11.0833 21.5523 11.0833 21V15C11.0833 14.4477 10.6729 14 10.1667 14ZM2.83333 13C1.82081 13 1 13.8954 1 15V21C1 22.1046 1.82081 23 2.83333 23H10.1667C11.1792 23 12 22.1046 12 21V15C12 13.8954 11.1792 13 10.1667 13H2.83333Z" fill="black"/>
</svg>
