<svg width="24" height="24" viewBox="0 0 24 24" fill="none" xmlns="http://www.w3.org/2000/svg">
<path d="M1 8.90799V3.15399C1 3.15399 3.17034 3.18145 5 3.15399C6.99214 3.1241 8.524 3.45399 9.5 3.40499C10.476 3.35599 13 3.40501 13 3.40501C13 3.40501 14.8137 2.88847 16.072 2.99999C18.0792 3.17789 20.5 3.40499 20.5 3.40499L22.753 2.99999L22.755 6.55099C22.755 6.55099 18.8671 5.83197 16.406 6.16799C14.1484 6.47622 10.859 6.97699 10.859 6.97699C10.859 6.97699 8.51808 7.13828 7.559 6.86099C4.62103 6.01157 1 8.90799 1 8.90799Z" fill="black"/>
<path d="M1 14.558V10.011C1 10.011 5.61844 7.19305 8.555 8.02098C9.51087 8.29048 10.8857 7.88969 11.855 8.10598C14.074 8.60114 14.1513 7.64784 16.405 7.34798C18.867 7.02041 22.754 7.71998 22.754 7.71998V11.548C22.754 11.548 20.0597 11.5932 18.373 11.404C15.1607 11.0436 13.331 14.326 10.907 13.259C8.483 12.192 8.30334 12.4012 6.826 12.404C4.40029 12.4085 1 14.558 1 14.558Z" fill="black"/>
<path d="M22.754 21H1V16.3C1 16.3 4.42796 14.2458 6.82 14.366C8.49193 14.45 9.23987 15.507 10.907 15.659C13.9569 15.937 15.3123 13.1508 18.373 13.259C20.1292 13.3211 22.753 14.291 22.753 14.291V20.999L22.754 21Z" fill="black"/>
</svg>
