<svg xmlns="http://www.w3.org/2000/svg" viewBox="0 0 24 24"><defs><style>.a{fill:none;stroke:currentColor;stroke-linecap:round;stroke-linejoin:round;stroke-width:1.5px;}</style></defs><title>lab-flask-experiment</title><path class="a" d="M6.726.75h10.5"/><path class="a" d="M15.726 8.25V.75h-7.5v7.5L1.489 18.615A3 3 0 0 0 4 23.25h15.948a3 3 0 0 0 2.515-4.635z"/><path class="a" d="M5.301 12.75h13.35"/><path class="a" d="M14.226 17.25h3"/><path class="a" d="M15.726 15.75v3"/><path class="a" d="M6.726 19.125a.375.375 0 0 1 .374.375"/><path class="a" d="M6.351 19.5a.375.375 0 0 1 .375-.375"/><path class="a" d="M6.726 19.875a.375.375 0 0 1-.375-.375"/><path class="a" d="M7.1 19.5a.375.375 0 0 1-.375.375"/><path class="a" d="M9.726 16.125a.375.375 0 0 1 .375.375"/><path class="a" d="M9.351 16.5a.375.375 0 0 1 .375-.375"/><path class="a" d="M9.726 16.875a.375.375 0 0 1-.375-.375"/><path class="a" d="M10.1 16.5a.375.375 0 0 1-.375.375"/><path class="a" d="M15.726 3.75h-3"/><path class="a" d="M15.726 6.75h-3"/></svg>