<svg width="24" height="24" viewBox="0 0 24 24" fill="none" xmlns="http://www.w3.org/2000/svg">
<g clip-path="url(#clip0)">
<rect width="24" height="24" fill="white"/>
<path fill-rule="evenodd" clip-rule="evenodd" d="M12.59 21.3269C13.7533 20.1614 14.4069 18.5807 14.4069 16.9325C14.4069 13.5006 8.20345 7.61043 8.20345 7.61043C8.20345 7.61043 2 13.5006 2 16.9325C2 18.5807 2.65358 20.1614 3.81695 21.3269C4.98032 22.4924 6.55819 23.1471 8.20345 23.1471C9.84871 23.1471 11.4266 22.4924 12.59 21.3269ZM6.94724 16.9891C6.94724 16.5545 6.59497 16.2023 6.16043 16.2023C5.72589 16.2023 5.37363 16.5545 5.37363 16.9891C5.37363 17.7467 5.67404 18.4736 6.20923 19.0097C6.74446 19.5459 7.4707 19.8474 8.22825 19.8474C8.66279 19.8474 9.01506 19.4952 9.01506 19.0606C9.01506 18.6261 8.66279 18.2738 8.22825 18.2738C7.88897 18.2738 7.56329 18.1388 7.32294 17.898C7.08255 17.6572 6.94724 17.3303 6.94724 16.9891Z" fill="black"/>
<path fill-rule="evenodd" clip-rule="evenodd" d="M14.045 7.97482C13.1641 7.09238 11.9695 6.59656 10.7238 6.59639C10.2897 6.59633 9.93775 6.24371 9.93781 5.80877C9.93787 5.37384 10.2899 5.0213 10.724 5.02136C12.3866 5.02158 13.9811 5.68334 15.1567 6.86111C16.3323 8.03888 16.9929 9.63621 16.9931 11.3018C16.9932 11.7368 16.6413 12.0894 16.2071 12.0894C15.773 12.0895 15.421 11.737 15.4209 11.302C15.4208 10.0541 14.9258 8.85727 14.045 7.97482Z" fill="black"/>
<path fill-rule="evenodd" clip-rule="evenodd" d="M17.3238 4.68905C15.826 3.18851 13.7945 2.3455 11.6763 2.34549C11.2421 2.34549 10.8902 1.9929 10.8902 1.55797C10.8902 1.12304 11.2421 0.770458 11.6763 0.770461C14.2115 0.770476 16.6429 1.77942 18.4355 3.57534C20.2282 5.37126 21.2353 7.80704 21.2354 10.3469C21.2354 10.7818 20.8834 11.1344 20.4493 11.1344C20.0151 11.1344 19.6632 10.7818 19.6632 10.3469C19.6632 8.22477 18.8217 6.1896 17.3238 4.68905Z" fill="black"/>
</g>
<defs>
<clipPath id="clip0">
<rect width="24" height="24" fill="white"/>
</clipPath>
</defs>
</svg>
